<svg width="52" height="52" viewBox="0 0 52 52" fill="none" xmlns="http://www.w3.org/2000/svg">
<path d="M26 1C39.8071 1 51 12.1929 51 26C51 39.8071 39.8071 51 26 51C12.1929 51 1 39.8071 1 26C1 12.1929 12.1929 1 26 1ZM26 44.3027C25.2617 44.3028 24.6611 44.9042 24.6611 45.6426V46.3115H24.5488C23.9951 46.3118 23.5449 46.7626 23.5449 47.3164V48.6553C23.5451 49.209 23.9951 49.6599 24.5488 49.6602H27.4512C28.005 49.6601 28.4549 49.2091 28.4551 48.6553V47.3164C28.4551 46.7624 28.0051 46.3116 27.4512 46.3115H27.3398V45.6426C27.3398 44.9042 26.7384 44.3027 26 44.3027ZM26 47.4277C26.1848 47.4277 26.3349 47.5779 26.335 47.7627V48.209C26.3348 48.3937 26.1847 48.5439 26 48.5439C25.8154 48.5438 25.6652 48.3936 25.665 48.209V47.7627C25.6651 47.578 25.8153 47.4279 26 47.4277ZM4.74512 28.7363C5.89606 37.7674 12.6666 45.0416 21.4404 46.9434L21.5352 46.5068L21.6289 46.0703C13.2218 44.2478 6.73249 37.2756 5.62988 28.623L4.74512 28.7363ZM46.3701 28.623C45.2675 37.2758 38.7785 44.248 30.3711 46.0703L30.5605 46.9434C39.3343 45.0416 46.1049 37.7673 47.2559 28.7363L46.8135 28.6797L46.3701 28.623ZM26 44.9727C26.3692 44.9727 26.6699 45.2734 26.6699 45.6426V46.3115H25.3301V45.6426C25.3301 45.2734 25.6309 44.9728 26 44.9727ZM26.001 9.03613C16.6319 9.03613 9.03613 16.6319 9.03613 26.001C9.03636 35.3699 16.632 42.9648 26.001 42.9648C35.3697 42.9646 42.9646 35.3697 42.9648 26.001C42.9648 16.632 35.3699 9.03639 26.001 9.03613ZM14.7939 30.4482C14.966 30.4483 15.1265 30.4729 15.2754 30.5225C15.4254 30.5711 15.5603 30.6432 15.6797 30.7383C15.7991 30.8323 15.8984 30.9476 15.9766 31.084C16.0546 31.2191 16.1073 31.3737 16.1348 31.5479H15.6406C15.6216 31.4424 15.5858 31.3497 15.5342 31.2695C15.4824 31.1892 15.4188 31.1205 15.3438 31.0645C15.2688 31.0085 15.1847 30.966 15.0918 30.9375C15 30.909 14.9022 30.8955 14.7988 30.8955C14.6118 30.8955 14.4439 30.9421 14.2959 31.0361C14.149 31.1302 14.0329 31.2684 13.9473 31.4502C13.8628 31.632 13.8203 31.8542 13.8203 32.1162C13.8203 32.3803 13.8628 32.6035 13.9473 32.7852C14.0329 32.9668 14.15 33.1043 14.2979 33.1973C14.4457 33.2901 14.6121 33.3369 14.7969 33.3369C14.8994 33.3369 14.9969 33.3224 15.0889 33.2949C15.1818 33.2664 15.2659 33.2248 15.3408 33.1699C15.4158 33.115 15.4795 33.048 15.5312 32.9688C15.584 32.8886 15.6205 32.7967 15.6406 32.6934L16.1348 32.6943C16.1084 32.8538 16.0574 33.0007 15.9814 33.1348C15.9065 33.2678 15.8096 33.3833 15.6914 33.4805C15.5741 33.5766 15.4392 33.6513 15.2881 33.7041C15.1371 33.7569 14.9724 33.7832 14.7939 33.7832C14.5128 33.7832 14.2618 33.7172 14.042 33.584C13.8224 33.4498 13.6492 33.258 13.5225 33.0088C13.3967 32.7594 13.334 32.4617 13.334 32.1162C13.334 31.7696 13.3976 31.472 13.5244 31.2236C13.6512 30.9742 13.8241 30.7826 14.0439 30.6494C14.2638 30.5152 14.5139 30.4482 14.7939 30.4482ZM18.0127 30.4482C18.2928 30.4482 18.5429 30.5152 18.7627 30.6494C18.9836 30.7826 19.1574 30.9742 19.2842 31.2236C19.4109 31.472 19.4746 31.7696 19.4746 32.1162C19.4746 32.4627 19.4109 32.7605 19.2842 33.0098C19.1574 33.2581 18.9836 33.4498 18.7627 33.584C18.5429 33.7171 18.2927 33.7832 18.0127 33.7832C17.7316 33.7832 17.4806 33.7171 17.2598 33.584C17.0401 33.4498 16.867 33.258 16.7402 33.0088C16.6135 32.7594 16.5498 32.4617 16.5498 32.1162C16.5498 31.7696 16.6134 31.472 16.7402 31.2236C16.8671 30.9742 17.0399 30.7826 17.2598 30.6494C17.4806 30.5152 17.7316 30.4483 18.0127 30.4482ZM21.6465 33.0166H21.6846L22.7178 30.4922H23.3125V33.7393H22.8467V31.3896H22.8164L21.8584 33.7344H21.4717L20.5146 31.3887H20.4844V33.7393H20.0186V30.4922H20.6133L21.6465 33.0166ZM25.1152 30.4922C25.3678 30.4922 25.5773 30.5389 25.7432 30.6309C25.9089 30.7228 26.0329 30.8484 26.1152 31.0078C26.1977 31.1663 26.2393 31.3453 26.2393 31.5439C26.2392 31.7435 26.1977 31.9235 26.1143 32.083C26.0319 32.2413 25.907 32.367 25.7402 32.46C25.5743 32.5519 25.3648 32.5977 25.1133 32.5977H24.4473V33.7393H23.958V30.4922H25.1152ZM27.2363 33.3174H28.708V33.7393H26.7461V30.4922H27.2363V33.3174ZM29.6895 33.7393H29.1992V30.4922H29.6895V33.7393ZM32.9932 33.7393H32.4727L32.1758 32.8799H30.9072L30.6104 33.7393H30.0898L31.2588 30.4922H31.8242L32.9932 33.7393ZM35.5 32.877H35.5303V30.4922H36.0156V33.7393H35.5645L33.915 31.3584H33.8848V33.7393H33.3945V30.4922H33.8477L35.5 32.877ZM39.0156 30.9141H38.002V33.7393H37.5137V30.9141H36.5029V30.4922H39.0156V30.9141ZM18.0127 30.8955C17.8257 30.8955 17.6586 30.9421 17.5117 31.0361C17.3649 31.1291 17.2487 31.2666 17.1631 31.4482C17.0785 31.629 17.0361 31.852 17.0361 32.1162C17.0362 32.3803 17.0786 32.6035 17.1631 32.7852C17.2487 32.9658 17.3649 33.1032 17.5117 33.1973C17.6586 33.2902 17.8257 33.3369 18.0127 33.3369C18.1987 33.3369 18.3658 33.2903 18.5127 33.1973C18.6605 33.1032 18.7768 32.9657 18.8613 32.7852C18.9469 32.6035 18.9892 32.3803 18.9893 32.1162C18.9893 31.852 18.9469 31.629 18.8613 31.4482C18.7768 31.2666 18.6605 31.1291 18.5127 31.0361C18.3658 30.9421 18.1987 30.8955 18.0127 30.8955ZM31.0498 32.4678H32.0332L31.5547 31.082H31.5293L31.0498 32.4678ZM24.4473 32.1826H25.0693C25.2289 32.1826 25.3587 32.1545 25.458 32.0996C25.5571 32.0436 25.6303 31.968 25.6768 31.8721C25.7232 31.776 25.746 31.6664 25.7461 31.5439C25.7461 31.4214 25.7233 31.3119 25.6768 31.2168C25.6303 31.1217 25.5565 31.0471 25.4561 30.9932C25.3567 30.9393 25.2252 30.9121 25.0625 30.9121H24.4473V32.1826ZM4.33691 23.7344C4.1555 23.7524 3.99282 23.7987 3.84961 23.873C3.70545 23.9463 3.58279 24.0421 3.48145 24.1602C3.37909 24.2781 3.29923 24.414 3.24316 24.5674C3.18719 24.7207 3.1557 24.888 3.14941 25.0684C3.13963 25.3513 3.19712 25.6075 3.32129 25.8359C3.44552 26.0642 3.63042 26.2482 3.875 26.3867C4.11858 26.5251 4.41532 26.6001 4.76465 26.6123C5.11308 26.6244 5.41427 26.5703 5.66797 26.4502C5.9216 26.3301 6.11897 26.1606 6.25879 25.9414C6.39853 25.7222 6.47339 25.4695 6.4834 25.1846C6.49013 24.9914 6.46749 24.8137 6.41602 24.6533C6.36347 24.4931 6.28764 24.3522 6.18945 24.2305C6.0901 24.1086 5.97439 24.0082 5.8418 23.9307C5.70917 23.852 5.56555 23.799 5.41211 23.7715L5.38867 24.3643C5.48297 24.3855 5.56647 24.4207 5.63867 24.4707C5.71093 24.5197 5.77105 24.58 5.81934 24.6504C5.86756 24.7196 5.90334 24.7975 5.92676 24.8838C5.94913 24.9691 5.95944 25.0611 5.95605 25.1582C5.94988 25.3333 5.90173 25.4879 5.81152 25.6211C5.72026 25.7531 5.58848 25.8555 5.41699 25.9277C5.24428 25.9989 5.03329 26.0301 4.78516 26.0215C4.54123 26.013 4.33621 25.9668 4.16992 25.8838C4.00261 25.8008 3.87687 25.69 3.79395 25.5508C3.71004 25.4115 3.67165 25.2534 3.67773 25.0771C3.68119 24.978 3.69813 24.8853 3.72852 24.8008C3.7579 24.7154 3.80048 24.6398 3.85547 24.5742C3.91059 24.5085 3.97714 24.4539 4.05469 24.4111C4.13117 24.3684 4.2188 24.3407 4.31641 24.3271L4.33691 23.7344ZM47.5791 24.9355L47.585 25.2803L46.2314 25.3047C46.0793 25.3063 45.9528 25.3418 45.8525 25.4102C45.7527 25.4794 45.6793 25.5719 45.6328 25.6875C45.5874 25.8034 45.5675 25.9337 45.5742 26.0771C45.5778 26.1584 45.5869 26.2275 45.6006 26.2832C45.6142 26.3399 45.6266 26.3837 45.6377 26.4141L46.084 26.3096C46.0795 26.2939 46.0742 26.2706 46.0684 26.2402C46.0626 26.2108 46.0592 26.1774 46.0586 26.1416C46.0578 26.0943 46.0651 26.0509 46.0791 26.0117C46.0932 25.9724 46.1205 25.94 46.1602 25.915C46.2009 25.8912 46.26 25.8783 46.3369 25.877L47.5947 25.8545L47.6035 26.335L48.0479 26.3271L48.0391 25.8467L48.6221 25.8369L48.6123 25.2627L48.0283 25.2725L48.0225 24.9277L47.5791 24.9355ZM16.0664 19.0586C16.4803 19.0586 16.8644 19.1162 17.2178 19.2324C17.5734 19.3487 17.8878 19.5191 18.1621 19.7422C18.4365 19.9631 18.66 20.2338 18.832 20.5547C19.0063 20.8754 19.1181 21.2426 19.167 21.6562H17.6396C17.6117 21.4588 17.5547 21.2833 17.4688 21.1299C17.3827 20.9741 17.2716 20.8417 17.1367 20.7324C17.002 20.6233 16.8465 20.5395 16.6699 20.4814C16.4956 20.4233 16.3061 20.3946 16.1016 20.3945C15.7319 20.3945 15.4091 20.4862 15.1348 20.6699C14.8606 20.8513 14.6481 21.1163 14.4971 21.4648C14.3459 21.8113 14.2705 22.2323 14.2705 22.7275C14.2705 23.2366 14.346 23.6643 14.4971 24.0107C14.6505 24.3572 14.8643 24.6192 15.1387 24.7959C15.413 24.9725 15.7305 25.0605 16.0908 25.0605C16.2931 25.0605 16.4803 25.0339 16.6523 24.9805C16.8266 24.927 16.9814 24.8493 17.1162 24.7471C17.2511 24.6424 17.3628 24.515 17.4512 24.3662C17.5418 24.2175 17.6048 24.0479 17.6396 23.8574L19.167 23.8643C19.1275 24.1921 19.0282 24.5089 18.8701 24.8135C18.7144 25.1155 18.5042 25.3866 18.2393 25.626C17.9766 25.863 17.6627 26.051 17.2979 26.1904C16.9351 26.3276 16.5245 26.3965 16.0664 26.3965C15.4293 26.3965 14.8596 26.2522 14.3574 25.9639C13.8576 25.6756 13.4625 25.2582 13.1719 24.7119C12.8836 24.1656 12.7393 23.504 12.7393 22.7275C12.7393 21.9486 12.8857 21.2857 13.1787 20.7393C13.4716 20.1931 13.8691 19.7772 14.3711 19.4912C14.8733 19.2029 15.4386 19.0586 16.0664 19.0586ZM23.2061 19.0586C23.6199 19.0586 24.004 19.1162 24.3574 19.2324C24.7131 19.3487 25.0284 19.519 25.3027 19.7422C25.5769 19.963 25.7997 20.234 25.9717 20.5547C26.146 20.8755 26.2578 21.2425 26.3066 21.6562H24.7793C24.7514 21.4587 24.6944 21.2833 24.6084 21.1299C24.5224 20.9742 24.4121 20.8417 24.2773 20.7324C24.1425 20.6232 23.9863 20.5396 23.8096 20.4814C23.6352 20.4233 23.4458 20.3945 23.2412 20.3945C22.8716 20.3945 22.5497 20.4863 22.2754 20.6699C22.001 20.8513 21.7879 21.1161 21.6367 21.4648C21.4856 21.8113 21.4102 22.2323 21.4102 22.7275C21.4102 23.2366 21.4856 23.6644 21.6367 24.0107C21.7902 24.3572 22.004 24.6192 22.2783 24.7959C22.5526 24.9726 22.8702 25.0605 23.2305 25.0605C23.4327 25.0605 23.62 25.0339 23.792 24.9805C23.9663 24.927 24.1211 24.8493 24.2559 24.7471C24.3907 24.6424 24.5025 24.515 24.5908 24.3662C24.6814 24.2175 24.7444 24.048 24.7793 23.8574L26.3066 23.8643C26.2671 24.1921 26.1689 24.5089 26.0107 24.8135C25.855 25.1157 25.6439 25.3865 25.3789 25.626C25.1163 25.863 24.8023 26.051 24.4375 26.1904C24.0748 26.3276 23.6641 26.3965 23.2061 26.3965C22.569 26.3965 21.9993 26.2522 21.4971 25.9639C20.9973 25.6756 20.6021 25.2582 20.3115 24.7119C20.0232 24.1656 19.8789 23.504 19.8789 22.7275C19.8789 21.9486 20.0254 21.2857 20.3184 20.7393C20.6112 20.1931 21.0088 19.7772 21.5107 19.4912C22.0129 19.2029 22.5783 19.0586 23.2061 19.0586ZM29.9619 19.1562C30.5037 19.1562 30.9654 19.2599 31.3467 19.4668C31.728 19.6714 32.0188 19.9563 32.2188 20.3213C32.4209 20.6839 32.5224 21.1021 32.5225 21.5762C32.5225 22.0505 32.4195 22.4693 32.2148 22.832C32.0103 23.1946 31.7143 23.4774 31.3262 23.6797C30.9402 23.882 30.4726 23.9834 29.9238 23.9834H28.6543V26.2988H27.1445V19.1562H29.9619ZM38.9199 26.2988H37.3018L36.7725 24.6699H34.1943L33.6641 26.2988H32.0459L34.5117 19.1562H36.458L38.9199 26.2988ZM46.54 22.5752C46.2955 22.6033 46.0845 22.6752 45.9072 22.7891C45.7313 22.9039 45.5999 23.0532 45.5137 23.2373C45.4276 23.4227 45.3981 23.6365 45.4258 23.8779C45.449 24.0805 45.506 24.2529 45.5967 24.3945C45.6884 24.536 45.8051 24.6428 45.9463 24.7148C46.0886 24.7868 46.2463 24.8204 46.4189 24.8145L46.3564 24.2695C46.2675 24.2627 46.19 24.2393 46.124 24.2012C46.058 24.163 46.0041 24.1122 45.9639 24.0488C45.9249 23.9864 45.9003 23.9129 45.8906 23.8291C45.8771 23.7107 45.8974 23.6031 45.9502 23.5078C46.0042 23.4136 46.0874 23.3351 46.1992 23.2734C46.3123 23.2116 46.4515 23.1712 46.6162 23.1523C46.7787 23.1337 46.921 23.1419 47.043 23.1768C47.1652 23.2127 47.2629 23.2714 47.335 23.3525C47.4079 23.4334 47.4514 23.5321 47.4648 23.6484C47.4806 23.7858 47.453 23.9004 47.3838 23.9912C47.3156 24.083 47.2243 24.1472 47.1104 24.1826L47.1729 24.7275C47.3456 24.695 47.4925 24.6257 47.6123 24.5205C47.7331 24.4152 47.8211 24.2823 47.875 24.1221C47.93 23.9627 47.9463 23.7841 47.9238 23.5879C47.8967 23.3519 47.8201 23.1532 47.6943 22.9922C47.5696 22.832 47.4069 22.7154 47.207 22.6426C47.0083 22.5697 46.7857 22.547 46.54 22.5752ZM5.27832 21.2871C5.1191 21.259 4.9807 21.2642 4.86426 21.3037C4.74827 21.3422 4.65126 21.4037 4.57324 21.4873C4.4942 21.5709 4.43004 21.6678 4.38281 21.7773C4.33563 21.8869 4.30164 21.9999 4.28125 22.1152C4.25171 22.2827 4.24988 22.4407 4.27539 22.5879C4.29989 22.7349 4.35362 22.8654 4.43555 22.9785C4.51645 23.0913 4.62646 23.1817 4.76465 23.249L4.93262 22.7344C4.8554 22.6918 4.79328 22.6249 4.74707 22.5342C4.70109 22.4424 4.69047 22.3268 4.71484 22.1885C4.73799 22.0577 4.78767 21.9626 4.86426 21.9043C4.94107 21.846 5.03869 21.8279 5.15625 21.8486L5.16602 21.8496C5.21992 21.8592 5.25653 21.8867 5.27539 21.9316C5.29334 21.9756 5.30079 22.0433 5.29785 22.1328C5.29386 22.2222 5.28658 22.3387 5.27637 22.4814C5.26831 22.6 5.26855 22.717 5.27734 22.8311C5.28533 22.9438 5.30894 23.048 5.34668 23.1436C5.3845 23.2392 5.44289 23.3202 5.52246 23.3857C5.60208 23.4513 5.7095 23.4966 5.84473 23.5205C6.0018 23.5482 6.1403 23.5361 6.25977 23.4854C6.37933 23.4336 6.47727 23.352 6.55371 23.2412C6.62929 23.1291 6.68117 22.9966 6.70801 22.8447C6.72998 22.7201 6.73177 22.6083 6.71387 22.5098C6.69507 22.4101 6.66242 22.3243 6.61621 22.2529C6.56897 22.1802 6.51463 22.1203 6.4541 22.0742L6.45801 22.0557L6.78711 22.1133L6.88281 21.5703L5.27832 21.2871ZM34.5771 23.4912H36.3906L35.5127 20.7881H35.457L34.5771 23.4912ZM5.92285 21.9824C6.01128 21.998 6.08942 22.0348 6.15625 22.0938C6.22325 22.1517 6.27263 22.227 6.30371 22.3184C6.33358 22.4094 6.33834 22.5118 6.31836 22.625C6.29757 22.7424 6.25393 22.8348 6.1875 22.9014C6.12104 22.9678 6.03559 22.992 5.93164 22.9736C5.85893 22.9608 5.80265 22.9312 5.76367 22.8848C5.72368 22.838 5.69689 22.7781 5.68262 22.707C5.66842 22.636 5.66261 22.5568 5.66602 22.4707C5.66742 22.4325 5.66919 22.387 5.6709 22.335C5.67261 22.2828 5.67303 22.2293 5.67285 22.1758C5.67266 22.1225 5.67012 22.0738 5.66504 22.0303C5.66012 21.9858 5.65192 21.9529 5.64062 21.9326L5.92285 21.9824ZM28.6543 22.7725H29.6797C29.9703 22.7725 30.2101 22.723 30.3984 22.623C30.5889 22.5209 30.7302 22.3799 30.8232 22.2012C30.9186 22.0198 30.9668 21.811 30.9668 21.5762C30.9668 21.3392 30.9185 21.1327 30.8232 20.9561C30.7303 20.7771 30.5889 20.6387 30.3984 20.541C30.2078 20.441 29.9658 20.3906 29.6729 20.3906H28.6543V22.7725ZM44.7725 20.4023L45.6143 20.4629L45.918 21.6445L45.2109 22.1045L45.3672 22.7129L48.2256 20.7949L48.0449 20.0918L44.6162 19.7939L44.7725 20.4023ZM47.4873 20.5977L47.4941 20.6221L46.3369 21.373L46.1113 20.498L47.4873 20.5977ZM3.82129 20.4199L6.96582 21.2285L7.10938 20.6729L3.96484 19.8643L3.82129 20.4199ZM4.89062 19.5957L7.21484 20.3213L7.38574 19.7734L5.06152 19.0488L4.89062 19.5957ZM4.44922 18.8076C4.3665 18.7818 4.28601 18.7913 4.20898 18.8359C4.13163 18.8792 4.07907 18.9447 4.05176 19.0322C4.02483 19.1187 4.03055 19.2026 4.06934 19.2832C4.10732 19.3636 4.16831 19.4176 4.25098 19.4434C4.33245 19.4687 4.41242 19.4591 4.49023 19.415C4.56719 19.3705 4.61938 19.3044 4.64648 19.2178C4.67386 19.1301 4.66811 19.0462 4.62988 18.9668C4.59092 18.8861 4.53078 18.8331 4.44922 18.8076ZM4.74414 17.1611C4.70279 17.2281 4.66497 17.3092 4.63086 17.4023C4.5827 17.5341 4.56419 17.6635 4.5752 17.79C4.58624 17.9165 4.63058 18.031 4.70898 18.1328C4.78796 18.2337 4.90481 18.3129 5.05859 18.3691L5.27344 18.4473L5.15039 18.7861L5.56738 18.9385L5.69043 18.6006L7.56152 19.2852L7.75879 18.7441L5.88867 18.0596L6.0625 17.5869L5.64551 17.4336L5.47168 17.9072L5.29199 17.8418C5.20279 17.8091 5.14213 17.7631 5.10938 17.7051C5.07605 17.6457 5.07768 17.5659 5.11426 17.4658C5.12984 17.4232 5.14738 17.3853 5.16797 17.3535C5.18748 17.3216 5.20549 17.2956 5.2207 17.2754L4.84375 17.0156C4.81917 17.046 4.78538 17.0944 4.74414 17.1611ZM43.6748 17.6387L43.5342 17.6484C43.4365 17.6546 43.3592 17.6431 43.3027 17.6133C43.2458 17.5847 43.2029 17.5404 43.1748 17.4814C43.1468 17.4223 43.1267 17.3487 43.1143 17.2627L42.6523 17.3271C42.6541 17.3692 42.6632 17.4231 42.6797 17.4873C42.6957 17.5529 42.7197 17.6214 42.752 17.6924C42.814 17.8288 42.8898 17.9361 42.9795 18.0137C43.0687 18.0926 43.1715 18.1469 43.2871 18.1768C43.4018 18.207 43.5279 18.2161 43.6641 18.2041L46.5527 17.9629L46.2998 17.4072L44.3926 17.6553L44.3828 17.6328L45.8242 16.3604L45.5723 15.8066L43.6748 17.6387ZM7.27734 15.4561C7.06568 15.456 6.87394 15.5105 6.70215 15.6191C6.53038 15.7279 6.39005 15.8882 6.2832 16.1006C6.1765 16.3128 6.13043 16.521 6.14551 16.7236C6.16068 16.9262 6.23176 17.1134 6.35742 17.2842C6.48365 17.454 6.65925 17.596 6.88379 17.709C7.10834 17.8219 7.32644 17.8783 7.53711 17.8779C7.74823 17.8765 7.93959 17.8206 8.11133 17.7119C8.28309 17.6032 8.42244 17.4427 8.5293 17.2305C8.63614 17.0181 8.68203 16.8102 8.66699 16.6074C8.65186 16.4048 8.58222 16.2182 8.45703 16.0488C8.33224 15.8785 8.15718 15.737 7.93262 15.624C7.708 15.511 7.48949 15.4552 7.27734 15.4561ZM7.2793 16.0195C7.40637 16.035 7.53683 16.0756 7.66992 16.1426C7.80198 16.209 7.9119 16.2891 8 16.3818C8.08859 16.4737 8.14566 16.5749 8.1709 16.6846C8.19509 16.7937 8.17801 16.9064 8.12012 17.0215C8.06077 17.1391 7.97944 17.2211 7.87695 17.2676C7.77397 17.3125 7.65907 17.3279 7.53223 17.3125C7.40563 17.2961 7.27569 17.255 7.14355 17.1885C7.01069 17.1216 6.90007 17.0419 6.81152 16.9502C6.72258 16.857 6.66496 16.755 6.63965 16.6455C6.61489 16.5349 6.63212 16.4197 6.69141 16.3018C6.74932 16.1868 6.8306 16.1066 6.93359 16.0615C7.03662 16.0166 7.15193 16.0027 7.2793 16.0195ZM43.8281 14.0234C43.6173 14.0427 43.4062 14.1173 43.1963 14.248C42.9874 14.3782 42.8272 14.5331 42.7158 14.7119C42.606 14.8911 42.5518 15.0827 42.5527 15.2861C42.5544 15.4905 42.6196 15.6961 42.748 15.9023C42.8558 16.0753 42.9805 16.2067 43.123 16.2959C43.2665 16.3844 43.4179 16.4308 43.5762 16.4355C43.7355 16.4396 43.8925 16.4025 44.0459 16.3232L43.7559 15.8574C43.6726 15.8894 43.5926 15.9026 43.5166 15.8965C43.4408 15.8903 43.371 15.867 43.3076 15.8271C43.2455 15.7874 43.1921 15.7309 43.1475 15.6592C43.0844 15.5579 43.0557 15.4525 43.0625 15.3438C43.0709 15.2354 43.1129 15.1291 43.1875 15.0254C43.2631 14.921 43.3719 14.825 43.5127 14.7373C43.6516 14.6508 43.784 14.5969 43.9092 14.5762C44.0348 14.5564 44.1473 14.568 44.2471 14.6104C44.3478 14.6522 44.4292 14.7227 44.4912 14.8223C44.5643 14.9397 44.5891 15.0542 44.5654 15.166C44.5431 15.2781 44.4882 15.3753 44.4004 15.4561L44.6904 15.9219C44.8325 15.8184 44.9358 15.6932 44.999 15.5469C45.0631 15.4 45.0844 15.2421 45.0645 15.0742C45.0459 14.9065 44.9843 14.738 44.8799 14.5703C44.7543 14.3689 44.6004 14.2224 44.418 14.1309C44.2367 14.0396 44.0398 14.0037 43.8281 14.0234ZM7.73926 13.5498C7.71602 13.5812 7.69638 13.6109 7.67969 13.6377C7.60611 13.7561 7.57303 13.8825 7.58105 14.0156C7.58889 14.1471 7.64057 14.2691 7.73633 14.3809L7.72266 14.4023L7.37793 14.1875L7.08398 14.6602L9.15234 15.9463L9.45508 15.459L8.23926 14.7031C8.15168 14.6486 8.08709 14.5799 8.04492 14.498C8.00281 14.416 7.98451 14.3276 7.99023 14.2344C7.99573 14.1396 8.02589 14.0468 8.08105 13.958C8.10664 13.9169 8.13644 13.8759 8.16992 13.8359C8.20299 13.7947 8.23005 13.7662 8.25 13.75L7.80176 13.4707C7.78336 13.4903 7.76218 13.5169 7.73926 13.5498ZM42.5928 11.9131C42.4545 11.8993 42.3138 11.9219 42.1719 11.9814L42.4473 12.4473C42.5303 12.4173 42.622 12.4153 42.7207 12.4404C42.8198 12.4665 42.9133 12.5342 43.001 12.6436C43.0842 12.7474 43.1231 12.8481 43.1162 12.9443C43.1093 13.0404 43.0587 13.1257 42.9658 13.2002L42.958 13.207C42.9153 13.241 42.8704 13.25 42.8242 13.2344C42.7794 13.2189 42.7244 13.1803 42.6592 13.1191C42.5946 13.0571 42.5118 12.9751 42.4111 12.873C42.3273 12.7886 42.2391 12.7123 42.1475 12.6436C42.0574 12.575 41.964 12.523 41.8672 12.4883C41.7703 12.4535 41.6702 12.4444 41.5684 12.4609C41.4667 12.4776 41.3619 12.5295 41.2549 12.6152C41.1308 12.7148 41.0485 12.8262 41.0078 12.9492C40.9679 13.0733 40.9642 13.2014 40.9971 13.332C41.0315 13.4627 41.097 13.5887 41.1934 13.709C41.2726 13.8078 41.3555 13.883 41.4414 13.9346C41.5288 13.9862 41.615 14.018 41.6992 14.0303C41.7849 14.0427 41.865 14.0414 41.9395 14.0264L41.9512 14.042L41.6904 14.251L42.0352 14.6816L43.3076 13.6621C43.4334 13.5613 43.5203 13.4541 43.5674 13.3408C43.6151 13.2281 43.6335 13.114 43.6221 13C43.6114 12.8854 43.5795 12.7739 43.5283 12.666C43.4771 12.5583 43.415 12.4586 43.3418 12.3672C43.2354 12.2344 43.1187 12.1288 42.9912 12.0508C42.8647 11.9722 42.7318 11.9262 42.5928 11.9131ZM9.66016 11.7871C9.51085 11.7561 9.36877 11.7676 9.23438 11.8213C9.10069 11.8742 8.98142 11.9663 8.87695 12.0977C8.76391 12.2399 8.69963 12.3845 8.68555 12.5312C8.67218 12.6771 8.70163 12.8147 8.77344 12.9434L8.75586 12.9658L8.43164 12.708L8.09082 13.1377L9.99609 14.6533L10.3535 14.2041L9.2373 13.3154C9.14554 13.2425 9.08053 13.1633 9.04297 13.0781C9.00619 12.9922 8.99478 12.9055 9.00879 12.8184C9.02269 12.7297 9.0608 12.6458 9.12305 12.5674C9.21508 12.4516 9.32343 12.389 9.44727 12.3809C9.57179 12.3719 9.69788 12.4184 9.8252 12.5195L10.9697 13.4297L11.3262 12.9805L10.1133 12.0156C9.96173 11.8938 9.81028 11.8174 9.66016 11.7871ZM41.7861 12.9736C41.8477 12.9744 41.9098 12.9931 41.9727 13.0293C42.0356 13.0656 42.0985 13.1133 42.1611 13.1729C42.189 13.1992 42.2226 13.2299 42.2607 13.2656C42.2989 13.3014 42.3375 13.3378 42.3779 13.373C42.4182 13.4082 42.457 13.4379 42.4932 13.4629C42.53 13.4887 42.5603 13.504 42.583 13.5088L42.3594 13.6885C42.2893 13.7446 42.2095 13.7788 42.1211 13.79C42.0334 13.8021 41.9445 13.7898 41.8555 13.7529C41.7673 13.7154 41.6872 13.6513 41.6152 13.5615C41.5406 13.4684 41.5004 13.3741 41.4941 13.2803C41.4881 13.1867 41.5263 13.1069 41.6084 13.041C41.6661 12.9948 41.7255 12.9722 41.7861 12.9736ZM9.76172 11.0752L11.5645 12.7129L11.9502 12.2881L10.1484 10.6504L9.76172 11.0752ZM39.6816 11.9785L40.1309 12.4258L42.4629 11.3105L42.0303 10.8799L40.3564 11.7676L40.3389 11.749L41.2168 10.0723L40.7832 9.64062L39.6816 11.9785ZM11.9248 9.22168C11.811 9.23889 11.7014 9.2757 11.5967 9.33301C11.492 9.39033 11.3957 9.45868 11.3086 9.53711C11.1824 9.65079 11.0841 9.77374 11.0137 9.90527C10.9425 10.0362 10.9035 10.1719 10.8984 10.3115C10.8927 10.4501 10.9239 10.5886 10.9912 10.7266L11.4404 10.4248C11.4059 10.3438 11.3986 10.2531 11.418 10.1533C11.4382 10.0528 11.5003 9.95521 11.6045 9.86133C11.7034 9.77228 11.802 9.72819 11.8984 9.72949C11.9948 9.73093 12.0833 9.77657 12.1631 9.86523L12.1689 9.87207C12.2055 9.91283 12.218 9.95682 12.2051 10.0039C12.1921 10.0496 12.156 10.1071 12.0986 10.1758C12.0405 10.2437 11.9631 10.3313 11.8672 10.4375C11.7878 10.526 11.7166 10.6186 11.6533 10.7139C11.5901 10.8077 11.5438 10.9043 11.5146 11.0029C11.4857 11.1015 11.4816 11.2013 11.5039 11.3018C11.5263 11.4024 11.5839 11.5044 11.6758 11.6064C11.7825 11.7249 11.8991 11.8005 12.0244 11.834C12.1505 11.8667 12.2778 11.8635 12.4062 11.8232C12.5349 11.7814 12.6568 11.7086 12.7715 11.6055C12.8657 11.5207 12.9358 11.4335 12.9824 11.3447C13.029 11.2545 13.056 11.1668 13.0635 11.082C13.071 10.9957 13.0652 10.9153 13.0459 10.8418L13.0605 10.8291L13.2842 11.0781L13.6943 10.709L12.6045 9.49707C12.4963 9.37687 12.3837 9.2964 12.2676 9.25586C12.1523 9.21467 12.0379 9.2037 11.9248 9.22168ZM12.6846 10.4424C12.7445 10.5091 12.7825 10.5863 12.7988 10.6738C12.8159 10.7607 12.8091 10.8504 12.7773 10.9414C12.7449 11.0315 12.686 11.1155 12.6006 11.1924C12.512 11.2721 12.4204 11.3175 12.3271 11.3291C12.2338 11.3406 12.1517 11.307 12.0811 11.2285C12.0317 11.1737 12.0051 11.1162 12.0029 11.0557C12.0002 10.9942 12.0153 10.93 12.0479 10.8652C12.0804 10.8006 12.1251 10.7356 12.1807 10.6699C12.2054 10.6406 12.2351 10.6055 12.2686 10.5654C12.302 10.5254 12.3353 10.4838 12.3682 10.4414C12.401 10.3991 12.4292 10.3589 12.4521 10.3213C12.4756 10.2833 12.4886 10.2524 12.4922 10.2295L12.6846 10.4424ZM38.5049 10.875L38.9404 11.25L40.5283 9.40332L40.0938 9.0293L38.5049 10.875ZM9.46484 10.0986C9.37634 10.1052 9.30099 10.1421 9.23926 10.21C9.17829 10.2771 9.14818 10.3558 9.14941 10.4453C9.14998 10.534 9.18234 10.6078 9.24609 10.666C9.30937 10.7235 9.38629 10.7494 9.47559 10.7422C9.56416 10.7342 9.63909 10.6961 9.7002 10.6289C9.76197 10.5609 9.79218 10.4827 9.79102 10.3945C9.78968 10.3049 9.75759 10.2314 9.69434 10.1738C9.6302 10.1155 9.5535 10.0907 9.46484 10.0986ZM37.2793 9.93359L37.7393 10.2764L38.5957 9.13086C38.6577 9.04797 38.7319 8.98813 38.8174 8.95312C38.9029 8.91815 38.9924 8.90807 39.085 8.92188C39.1789 8.93551 39.2678 8.97353 39.3516 9.03613C39.3904 9.06522 39.4288 9.09787 39.4658 9.13477C39.5043 9.17146 39.5305 9.20134 39.5449 9.22266L39.8613 8.7998C39.8434 8.77978 39.8189 8.75617 39.7881 8.73047C39.7587 8.70453 39.7305 8.68207 39.7051 8.66309C39.5935 8.57975 39.4711 8.53662 39.3379 8.5332C39.206 8.52961 39.0797 8.57028 38.96 8.65625L38.9404 8.6416L39.1836 8.31641L38.7373 7.9834L37.2793 9.93359ZM15.123 6.20703C14.9681 6.18729 14.8111 6.19596 14.6523 6.23438C14.4936 6.27282 14.3373 6.33971 14.1836 6.43457C13.9427 6.58334 13.7609 6.77287 13.6396 7.00293C13.5186 7.23285 13.4689 7.48832 13.4893 7.76855C13.5091 8.04803 13.6103 8.33726 13.7939 8.63477C13.977 8.93134 14.1891 9.15238 14.4297 9.29688C14.6704 9.44135 14.9216 9.51112 15.1816 9.50586C15.4415 9.50053 15.6929 9.42223 15.9355 9.27246C16.1 9.17095 16.235 9.05455 16.3398 8.92285C16.444 8.79034 16.5195 8.64913 16.5664 8.5C16.6127 8.34977 16.632 8.19728 16.623 8.04395C16.6149 7.89009 16.5797 7.74149 16.5176 7.59863L16.0107 7.90723C16.0454 7.99754 16.0622 8.08693 16.0605 8.1748C16.0598 8.26208 16.0435 8.34564 16.0117 8.4248C15.9808 8.5033 15.9358 8.57625 15.877 8.64355C15.8184 8.70946 15.7477 8.76832 15.665 8.81934C15.5158 8.91142 15.3601 8.95728 15.1992 8.95605C15.0388 8.95326 14.8808 8.90052 14.7256 8.79785C14.5706 8.69363 14.4283 8.53543 14.2979 8.32422C14.1697 8.11666 14.0936 7.9206 14.0703 7.73633C14.0466 7.55111 14.0698 7.38449 14.1396 7.23828C14.209 7.09139 14.3189 6.97152 14.4688 6.87891C14.5532 6.82678 14.6394 6.79015 14.7266 6.76855C14.8142 6.74552 14.901 6.73862 14.9863 6.74805C15.0715 6.75751 15.1539 6.78241 15.2324 6.82324C15.3104 6.86321 15.3819 6.92039 15.4473 6.99414L15.9521 6.68262C15.8366 6.54164 15.7076 6.43246 15.5664 6.35449C15.4255 6.27507 15.2775 6.22592 15.123 6.20703ZM40.7061 8.40039C40.6173 8.40339 40.5447 8.43743 40.4883 8.50293C40.4326 8.56778 40.4093 8.64526 40.4189 8.73438C40.4294 8.82258 40.4693 8.89687 40.5381 8.95605C40.6076 9.01572 40.6865 9.04359 40.7744 9.04004C40.864 9.03632 40.9373 9.00227 40.9932 8.9375C41.0496 8.87189 41.0718 8.79432 41.0615 8.70605C41.0526 8.61768 41.0139 8.54331 40.9443 8.4834C40.8754 8.42411 40.7957 8.39667 40.7061 8.40039ZM35.0283 8.59277L35.5371 8.88672L36.085 7.93652L36.624 8.24805C36.8409 8.37328 37.047 8.43929 37.2412 8.44531C37.4358 8.45038 37.6118 8.4046 37.7686 8.30859C37.9253 8.21247 38.0561 8.07374 38.1602 7.89355C38.2632 7.71519 38.3173 7.5334 38.3223 7.34961C38.3285 7.16562 38.2813 6.99059 38.1807 6.8252C38.0807 6.66009 37.922 6.51536 37.7061 6.39062L36.6523 5.78125L35.0283 8.59277ZM17.9736 5.61523C17.7721 5.58817 17.5611 5.62173 17.3428 5.71582C17.1248 5.80981 16.9565 5.93974 16.8379 6.10449C16.7193 6.26943 16.6532 6.45839 16.6396 6.66992C16.6272 6.88122 16.67 7.10308 16.7695 7.33398C16.8691 7.56491 17.0003 7.74772 17.1621 7.88281C17.3248 8.0174 17.5066 8.09886 17.708 8.12598C17.9094 8.15304 18.1197 8.11934 18.3379 8.02539C18.5561 7.93137 18.725 7.80161 18.8438 7.63672C18.9624 7.4717 19.0281 7.28353 19.041 7.07324C19.0549 6.86247 19.0126 6.6411 18.9131 6.41016C18.8136 6.17927 18.6817 5.99599 18.5186 5.86035C18.3565 5.72444 18.1749 5.64236 17.9736 5.61523ZM37.3818 6.77051C37.509 6.84397 37.6006 6.9261 37.6562 7.01562C37.7132 7.10461 37.7397 7.19792 37.7344 7.2959C37.7298 7.39451 37.6982 7.49407 37.6406 7.59375C37.583 7.69335 37.5124 7.7711 37.4287 7.8252C37.346 7.87961 37.2512 7.9059 37.1455 7.90332C37.0398 7.90065 36.9238 7.86271 36.7979 7.79004L36.3271 7.51758L36.915 6.50098L37.3818 6.77051ZM32.7891 7.59375L33.3242 7.80273L33.8447 6.46973C33.8824 6.37333 33.9387 6.29674 34.0117 6.24023C34.0848 6.1838 34.1679 6.14905 34.2607 6.1377C34.3549 6.12584 34.4505 6.13973 34.5479 6.17773C34.5931 6.19543 34.639 6.21645 34.6846 6.24219C34.7314 6.2673 34.7646 6.28895 34.7842 6.30566L34.9766 5.81348C34.9539 5.79894 34.9234 5.78319 34.8867 5.7666C34.8516 5.74952 34.8194 5.73512 34.79 5.72363C34.6601 5.67286 34.5299 5.66404 34.4004 5.69629C34.2726 5.72802 34.1627 5.80143 34.0703 5.91602L34.0459 5.90625L34.1943 5.52832L33.6758 5.32617L32.7891 7.59375ZM17.5264 6.13281C17.6447 6.08184 17.7582 6.07183 17.8662 6.10352C17.9741 6.13525 18.0713 6.19912 18.1582 6.29395C18.2456 6.38742 18.319 6.50287 18.3779 6.63965C18.4363 6.77536 18.4697 6.90752 18.4775 7.03516C18.4863 7.1622 18.4651 7.27589 18.4141 7.37598C18.3625 7.47516 18.2775 7.55058 18.1592 7.60156C18.038 7.65376 17.9229 7.66502 17.8145 7.63477C17.7066 7.60311 17.6088 7.5405 17.5215 7.44727C17.4351 7.35347 17.3622 7.2382 17.3037 7.10254C17.2448 6.96585 17.2111 6.83329 17.2021 6.70605C17.1939 6.57747 17.2146 6.4625 17.2656 6.3623C17.3177 6.26164 17.4051 6.18509 17.5264 6.13281ZM20.6504 4.69629C20.5105 4.66246 20.3595 4.66947 20.1982 4.7168C20.0241 4.76798 19.8889 4.84921 19.793 4.96094C19.6981 5.07249 19.6423 5.20212 19.627 5.34863L19.5996 5.35645L19.4834 4.95898L18.957 5.11328L19.6426 7.4502L20.1934 7.28906L19.792 5.91992C19.759 5.80765 19.7514 5.70538 19.7695 5.61426C19.7889 5.52277 19.8299 5.4451 19.8916 5.38184C19.9541 5.31725 20.0336 5.27047 20.1299 5.24219C20.2718 5.20058 20.396 5.21169 20.502 5.27637C20.6088 5.34077 20.6846 5.45144 20.7305 5.60742L21.1426 7.00977L21.6934 6.84863L21.2568 5.36035C21.2031 5.17366 21.1228 5.02517 21.0176 4.91406C20.9133 4.80268 20.7912 4.72986 20.6504 4.69629ZM32.1631 4.81738C31.9398 4.753 31.7302 4.74895 31.5352 4.80371C31.3406 4.85754 31.1704 4.96223 31.0254 5.11816C30.8818 5.27343 30.7755 5.47157 30.7061 5.71191C30.6355 5.95643 30.6191 6.18267 30.6582 6.38965C30.6977 6.59564 30.7886 6.77254 30.9297 6.91992C31.0721 7.0666 31.2606 7.1745 31.4951 7.24219C31.6767 7.29457 31.8461 7.31383 32.0029 7.2998C32.1601 7.2847 32.2986 7.23938 32.418 7.16504C32.5386 7.08992 32.6353 6.98889 32.707 6.8623L32.209 6.65625C32.1656 6.71504 32.1132 6.76017 32.0527 6.79102C31.9923 6.82178 31.926 6.83912 31.8545 6.84375C31.7832 6.84731 31.707 6.83753 31.627 6.81445C31.5072 6.77988 31.4097 6.72398 31.335 6.64746C31.2607 6.56997 31.2124 6.47589 31.1904 6.36523C31.1695 6.25719 31.1769 6.1375 31.2129 6.00684L32.8428 6.47754L32.8916 6.30859C32.9507 6.10367 32.973 5.91845 32.959 5.75391C32.9452 5.58832 32.9027 5.44252 32.8311 5.31738C32.7605 5.19265 32.6673 5.08872 32.5518 5.00586C32.4373 4.92222 32.3073 4.859 32.1631 4.81738ZM26.7305 6.41309L27.3008 6.47949L27.4717 5.00879C27.4833 4.90924 27.5141 4.8247 27.5625 4.75488C27.6111 4.68399 27.6713 4.63177 27.7432 4.59863C27.8151 4.56451 27.8919 4.55208 27.9736 4.56152C28.0943 4.57555 28.188 4.62387 28.2539 4.70703C28.3208 4.79033 28.3465 4.89466 28.332 5.01953L28.1514 6.57812L28.71 6.64355L28.8857 5.13477C28.9016 4.9986 28.9528 4.89247 29.0391 4.81641C29.1267 4.73936 29.2395 4.70864 29.377 4.72461C29.4924 4.73803 29.5856 4.78467 29.6572 4.86426C29.7289 4.94281 29.7567 5.05697 29.7393 5.20703L29.5605 6.74219L30.1318 6.80859L30.3213 5.18555C30.3526 4.91581 30.3059 4.70194 30.1816 4.54492C30.0573 4.3879 29.8837 4.29638 29.6611 4.27051C29.486 4.25017 29.3297 4.27309 29.1924 4.33887C29.0562 4.40389 28.9529 4.50081 28.8838 4.62891L28.8584 4.62598C28.8281 4.48416 28.7604 4.3673 28.6562 4.27539C28.5533 4.18272 28.4203 4.12648 28.2568 4.10742C28.0952 4.08865 27.9509 4.11158 27.8252 4.17676C27.6998 4.2409 27.6036 4.34003 27.5371 4.47266L27.5088 4.46875L27.5566 4.05762L27.0117 3.99512L26.7305 6.41309ZM22.5713 4.19434C22.3796 4.22626 22.215 4.28425 22.0781 4.36914C21.9422 4.45281 21.8424 4.55662 21.7783 4.67969C21.7152 4.80151 21.6961 4.93631 21.7217 5.08398C21.7498 5.2592 21.8285 5.39593 21.958 5.49219C22.0874 5.58729 22.2716 5.63979 22.5098 5.64941L22.9336 5.66699C23.0481 5.67258 23.1357 5.69334 23.1953 5.72949C23.2557 5.76547 23.2913 5.81806 23.3027 5.88672C23.3162 5.96791 23.2869 6.04344 23.2139 6.1123C23.1417 6.181 23.0377 6.22667 22.9033 6.24902C22.7732 6.27062 22.6627 6.26043 22.5723 6.21875C22.4819 6.17707 22.4151 6.10404 22.3721 6L21.8291 6.14453C21.9003 6.35973 22.0354 6.51517 22.2354 6.60938C22.4351 6.70254 22.6826 6.72467 22.9766 6.67578C23.1765 6.64248 23.3488 6.58043 23.4922 6.49023C23.6355 6.40001 23.7412 6.29003 23.8086 6.16113C23.8769 6.03092 23.899 5.88952 23.875 5.73828C23.8453 5.56655 23.7649 5.43638 23.6357 5.34863C23.5076 5.26091 23.3259 5.21137 23.0908 5.2002L22.666 5.18066C22.5397 5.17279 22.4461 5.15202 22.3857 5.11719C22.3264 5.08211 22.2919 5.0289 22.2812 4.95898C22.2667 4.87792 22.2946 4.80543 22.3652 4.74121C22.437 4.6768 22.5317 4.63485 22.6494 4.61523C22.737 4.60067 22.8138 4.60204 22.8789 4.62012C22.9439 4.63821 22.998 4.66715 23.041 4.70703C23.0851 4.74682 23.1183 4.79212 23.1416 4.8418L23.6484 4.69922C23.5759 4.5014 23.4481 4.35648 23.2656 4.26367C23.0841 4.17067 22.8528 4.1475 22.5713 4.19434ZM25.71 3.96777L25.7588 5.37793C25.763 5.50122 25.7411 5.6054 25.6924 5.68945C25.6446 5.77228 25.5814 5.836 25.5039 5.87988C25.4262 5.92375 25.3442 5.94728 25.2598 5.9502C25.1228 5.95482 25.0103 5.91379 24.9229 5.82617C24.8353 5.73834 24.7886 5.61689 24.7832 5.46289L24.7324 4.00195L24.1592 4.02148L24.2129 5.57129C24.2196 5.76551 24.2596 5.93056 24.333 6.06543C24.4063 6.19908 24.5051 6.29962 24.6289 6.36719C24.7538 6.43369 24.8962 6.46448 25.0557 6.45898C25.2383 6.45267 25.3911 6.40431 25.5127 6.31348C25.6352 6.22265 25.7213 6.10759 25.7715 5.96973L25.7969 5.96875L25.8115 6.40137L26.3682 6.38184L26.2842 3.94824L25.71 3.96777ZM31.7266 5.24609C31.8275 5.21599 31.9344 5.21659 32.0469 5.24902C32.1525 5.2795 32.2383 5.33078 32.3037 5.40137C32.3699 5.47213 32.4139 5.55543 32.4346 5.65137C32.4555 5.74645 32.4503 5.8473 32.4209 5.95312L31.3223 5.63574C31.354 5.54581 31.4008 5.46715 31.4648 5.40137C31.538 5.32684 31.6258 5.2753 31.7266 5.24609Z" fill="url(#paint0_radial_8228_117000)"/>
<defs>
<radialGradient id="paint0_radial_8228_117000" cx="0" cy="0" r="1" gradientUnits="userSpaceOnUse" gradientTransform="translate(25.8826 1) rotate(90) scale(50 42.1583)">
<stop offset="0.461367" stop-color="#F4F4F2"/>
<stop offset="1" stop-color="#B4BFBB"/>
</radialGradient>
</defs>
</svg>
