<svg width="52" height="52" viewBox="0 0 52 52" fill="none" xmlns="http://www.w3.org/2000/svg">
<path d="M27.002 1.61816C32.4276 6.0863 39.6314 6.0789 45.6387 6.07227C45.8681 6.07202 46.0965 6.07129 46.3223 6.07129H47.5029V27.8281C47.5029 35.989 42.1047 41.7786 36.9727 45.4443C34.3874 47.2909 31.8101 48.6444 29.8828 49.5352C28.9176 49.9813 28.1112 50.3134 27.543 50.5352C27.1163 50.7016 26.685 50.8536 26.251 51C25.8172 50.8537 25.3865 50.7015 24.96 50.5352C24.3918 50.3135 23.5853 49.9812 22.6201 49.5352C20.6929 48.6444 18.1145 47.291 15.5293 45.4443C10.3974 41.7786 5 35.9887 5 27.8281V6.07129H6.18066C6.40635 6.07129 6.63394 6.07202 6.86328 6.07227C12.8706 6.0789 20.0752 6.0865 25.501 1.61816L26.251 1L27.002 1.61816ZM25.7383 2.6416C20.7858 6.49701 14.5343 6.97094 9.14453 7.01855L6.85938 7.02246H6.78516L5.95117 7.02148V27.8281C5.9515 35.5267 11.0414 41.0674 16.082 44.668C18.6053 46.4703 21.1283 47.7953 23.0186 48.6689C23.9635 49.1057 24.752 49.4308 25.3047 49.6465C25.5263 49.733 25.7501 49.8139 25.9707 49.8926L26.25 49.9922L26.5303 49.8926C26.7518 49.8136 26.9744 49.7327 27.1953 49.6465C27.7477 49.4309 28.536 49.1059 29.4814 48.6689C31.3719 47.7952 33.8945 46.4705 36.418 44.668C41.4588 41.0674 46.5485 35.527 46.5488 27.8281V7.02148L45.7148 7.02246H45.6396C39.8291 7.02888 32.4513 7.06978 26.7627 2.6416L26.25 2.24316L25.7383 2.6416ZM26.25 3.29883C31.4574 7.35268 37.9908 7.80673 43.3984 7.85254L45.6406 7.85645C45.6656 7.85642 45.691 7.85647 45.7158 7.85645V27.8281L45.7012 28.5059C45.4136 35.4549 40.7386 40.5581 35.9336 43.9902L35.4707 44.3154C33.1573 45.9148 30.8739 47.1069 29.1318 47.9121C28.2038 48.341 27.4315 48.6598 26.8926 48.8701L26.25 49.1074C26.0326 49.0299 25.8179 48.9522 25.6074 48.8701C25.0685 48.6598 24.2959 48.3409 23.3682 47.9121C21.5102 47.0533 19.0355 45.7538 16.5664 43.9902C11.7616 40.5581 7.08546 35.4546 6.79785 28.5059L6.78418 27.8281V7.85645C6.80949 7.85647 6.83496 7.85642 6.86035 7.85645L9.15234 7.85254C14.5506 7.80485 21.0586 7.34019 26.25 3.29883ZM17.5801 31.3223C17.1555 31.3223 16.7626 31.3987 16.4014 31.5508C16.0399 31.7008 15.7245 31.9204 15.4561 32.21C15.1876 32.4974 14.9782 32.8476 14.8281 33.2598C14.6802 33.6719 14.6065 34.14 14.6064 34.6641C14.6064 35.3487 14.732 35.9407 14.9834 36.4395C15.237 36.9361 15.589 37.3203 16.0391 37.5908C16.4914 37.8592 17.0171 37.9931 17.6152 37.9932C18.1521 37.9932 18.6277 37.8846 19.042 37.667C19.4562 37.4472 19.7818 37.1343 20.0186 36.7285C20.2552 36.3228 20.374 35.8419 20.374 35.2861V34.5059H17.7393V35.4248H19.2334C19.228 35.7226 19.1643 35.9836 19.0391 36.208C18.908 36.4405 18.7206 36.6202 18.4775 36.7471C18.2367 36.8738 17.9516 36.9375 17.6221 36.9375C17.2585 36.9375 16.9388 36.8502 16.6641 36.6748C16.3893 36.4972 16.1748 36.2378 16.0205 35.8975C15.8663 35.5572 15.7891 35.1417 15.7891 34.6514C15.7891 34.1653 15.8662 33.7532 16.0205 33.415C16.1769 33.0748 16.3915 32.817 16.6641 32.6416C16.9367 32.4662 17.2479 32.3779 17.5967 32.3779C17.791 32.378 17.971 32.4034 18.1357 32.4541C18.3005 32.5027 18.4465 32.5757 18.5732 32.6729C18.7021 32.7701 18.8115 32.888 18.9023 33.0254C18.9952 33.1605 19.0683 33.3134 19.1211 33.4844H20.3203C20.2717 33.1653 20.1691 32.8735 20.0127 32.6094C19.8563 32.3452 19.6561 32.1171 19.4131 31.9248C19.1722 31.7325 18.8966 31.584 18.5859 31.4805C18.2752 31.3748 17.9394 31.3223 17.5801 31.3223ZM21.1094 31.4111V37.9043H23.3096C23.969 37.9043 24.5337 37.7746 25.0029 37.5146C25.4742 37.2547 25.8346 36.8816 26.084 36.3955C26.3355 35.9093 26.4619 35.3278 26.4619 34.6514C26.4619 33.9772 26.3372 33.398 26.0879 32.9141C25.8385 32.43 25.4807 32.0587 25.0156 31.8008C24.5528 31.5409 23.999 31.4112 23.3545 31.4111H21.1094ZM27.1777 31.4111V37.9043H28.3535V35.7109H29.5967C30.0975 35.7109 30.5189 35.6184 30.8613 35.4346C31.2037 35.2486 31.4632 34.9942 31.6387 34.6709C31.8141 34.3475 31.9014 33.977 31.9014 33.5605C31.9013 33.1485 31.8141 32.7804 31.6387 32.457C31.4654 32.1317 31.2083 31.8764 30.8682 31.6904C30.53 31.5044 30.1112 31.4111 29.6123 31.4111H27.1777ZM32.5215 31.4111V37.9043H33.6982V35.5264H34.8945L36.1709 37.9043H37.4834L36.0781 35.333C36.1206 35.3159 36.1628 35.2987 36.2031 35.2793C36.5454 35.1123 36.8041 34.8766 36.9795 34.5723C37.157 34.2659 37.246 33.9046 37.2461 33.4883C37.2461 33.074 37.1579 32.7111 36.9824 32.4004C36.8091 32.0876 36.5522 31.8442 36.2119 31.6709C35.8738 31.4978 35.4555 31.4112 34.957 31.4111H32.5215ZM23.2881 32.4287C23.7276 32.4288 24.0957 32.5109 24.3916 32.6758C24.6896 32.8385 24.9142 33.0854 25.0664 33.415C25.2186 33.7426 25.2949 34.1547 25.2949 34.6514C25.2949 35.1481 25.2186 35.5627 25.0664 35.8945C24.9142 36.2242 24.687 36.4727 24.3848 36.6396C24.0825 36.8045 23.7052 36.8867 23.2529 36.8867H22.2861V32.4287H23.2881ZM29.4316 32.3945C29.7254 32.3945 29.9654 32.4437 30.1514 32.543C30.3394 32.6402 30.4776 32.7768 30.5664 32.9521C30.6573 33.1275 30.7031 33.3303 30.7031 33.5605C30.7031 33.7909 30.6573 33.9953 30.5664 34.1729C30.4776 34.3503 30.3402 34.4904 30.1543 34.5918C29.9684 34.693 29.7298 34.7431 29.4385 34.7432H28.3535V32.3945H29.4316ZM34.7764 32.3945C35.07 32.3946 35.3102 32.4378 35.4961 32.5244C35.6819 32.609 35.8203 32.7337 35.9111 32.8984C36.002 33.0612 36.0479 33.258 36.0479 33.4883C36.0478 33.7185 36.002 33.9128 35.9111 34.0713C35.8224 34.2277 35.685 34.3473 35.499 34.4297C35.313 34.51 35.0739 34.5498 34.7822 34.5498H33.6982V32.3945H34.7764ZM25.9824 11.7158C24.013 11.716 22.4112 13.3177 22.4111 15.2871V17.5312C21.161 17.6443 20.1788 18.6964 20.1787 19.9756V23.5469C20.1787 24.9012 21.2795 26.0017 22.6338 26.002H29.3301C30.6845 26.002 31.7861 24.9013 31.7861 23.5469V19.9756C31.7861 18.6964 30.8038 17.6443 29.5537 17.5312V15.2871C29.5536 13.3175 27.952 11.7158 25.9824 11.7158ZM25.9824 20.6455C26.3518 20.6456 26.6521 20.9451 26.6523 21.3145V22.208C26.6522 22.5775 26.3519 22.8769 25.9824 22.877C25.6129 22.8768 25.3126 22.5775 25.3125 22.208V21.3145C25.3128 20.9451 25.613 20.6456 25.9824 20.6455ZM25.9824 13.0547C27.2127 13.0547 28.2148 14.0568 28.2148 15.2871V17.5205H23.75V15.2871C23.7501 14.0569 24.7523 13.0549 25.9824 13.0547Z" fill="url(#paint0_radial_8228_116989)"/>
<defs>
<radialGradient id="paint0_radial_8228_116989" cx="0" cy="0" r="1" gradientUnits="userSpaceOnUse" gradientTransform="translate(26.1517 1) rotate(90) scale(50 35.837)">
<stop offset="0.461367" stop-color="#F4F4F2"/>
<stop offset="1" stop-color="#B4BFBB"/>
</radialGradient>
</defs>
</svg>
